<svg width="current" height="current" viewBox="0 0 48 48" fill="none" xmlns="http://www.w3.org/2000/svg">
<g filter="url(#filter0_d_3488_42681)">
<circle cx="24" cy="24" r="20" fill="#ffffff"/>
</g>
<path fill-rule="evenodd" clip-rule="evenodd" d="M24.0273 14C24.3035 14 24.5273 14.2239 24.5273 14.5V15.4158L24.5271 15.4321C28.8311 15.6968 32.2733 19.1564 32.5214 23.4739L32.5357 23.4737H33.4496C33.7257 23.4737 33.9496 23.6975 33.9496 23.9737C33.9496 24.2498 33.7257 24.4737 33.4496 24.4737H32.5357L32.5214 24.4735C32.2733 28.7909 28.8311 32.2505 24.527 32.5153L24.5273 32.5316V33.4474C24.5273 33.7235 24.3035 33.9474 24.0273 33.9474C23.7512 33.9474 23.5273 33.7235 23.5273 33.4474V32.5316L23.5275 32.5189C19.1931 32.2842 15.718 28.8104 15.47 24.4706C15.4516 24.4726 15.4329 24.4737 15.4139 24.4737H14.5C14.2239 24.4737 14 24.2498 14 23.9737C14 23.6975 14.2239 23.4737 14.5 23.4737H15.4139C15.4329 23.4737 15.4516 23.4747 15.47 23.4768C15.718 19.137 19.1931 15.6632 23.5275 15.4284L23.5273 15.4158V14.5C23.5273 14.2239 23.7512 14 24.0273 14ZM23.9958 16.4684C28.1239 16.4684 31.4853 19.8368 31.4853 23.9737C31.4853 28.1105 28.1239 31.4789 23.9958 31.4789C19.8676 31.4789 16.5063 28.1105 16.5063 23.9737C16.5063 19.8368 19.8676 16.4684 23.9958 16.4684ZM20.2773 23.9737C20.2773 21.9211 21.9475 20.2474 23.9958 20.2474C26.0441 20.2474 27.7143 21.9105 27.7143 23.9737C27.7143 26.0368 26.0546 27.7 23.9958 27.7C21.937 27.7 20.2773 26.0263 20.2773 23.9737Z" fill="#222222"/>
<defs>
<filter id="filter0_d_3488_42681" x="0" y="0" width="48" height="48" filterUnits="userSpaceOnUse" color-interpolation-filters="sRGB">
<feFlood flood-opacity="0" result="BackgroundImageFix"/>
<feColorMatrix in="SourceAlpha" type="matrix" values="0 0 0 0 0 0 0 0 0 0 0 0 0 0 0 0 0 0 127 0" result="hardAlpha"/>
<feOffset/>
<feGaussianBlur stdDeviation="2"/>
<feColorMatrix type="matrix" values="0 0 0 0 0.427451 0 0 0 0 0.427451 0 0 0 0 0.427451 0 0 0 0.3 0"/>
<feBlend mode="normal" in2="BackgroundImageFix" result="effect1_dropShadow_3488_42681"/>
<feBlend mode="normal" in="SourceGraphic" in2="effect1_dropShadow_3488_42681" result="shape"/>
</filter>
</defs>
</svg>
